<svg width="17" height="13" viewBox="0 0 17 13" fill="none" xmlns="http://www.w3.org/2000/svg">
<path d="M17.0001 1.86496H16.3472C16.1047 1.86496 15.7619 2.18893 15.7619 2.39633V9.91367C15.7619 10.1213 16.1047 10.4044 16.3472 10.4044H17.0001V12.1887H11.084V10.4044H12.3223V2.50223H12.2616L9.36999 12.1887H7.13129L4.277 2.50223H4.20477V10.4044H5.44303V12.1887H0.48999V10.4044H1.12422C1.38542 10.4044 1.72825 10.1213 1.72825 9.91367V2.39633C1.72825 2.18893 1.38542 1.86496 1.12422 1.86496H0.48999V0.0806119H6.68355L8.717 7.09057H8.77295L10.8252 0.0806119H17.0001V1.86496Z" fill="#757E9A"/>
</svg>
