<svg width="18" height="14" viewBox="0 0 18 14" fill="none" xmlns="http://www.w3.org/2000/svg">
<path fill-rule="evenodd" clip-rule="evenodd" d="M17.0328 1.6145C16.4253 1.87539 15.7726 2.05099 15.0877 2.1308C15.7868 1.72524 16.3239 1.08324 16.5767 0.318513C15.9222 0.693891 15.1973 0.966507 14.4257 1.11342C13.8081 0.477145 12.9276 0.0805664 11.9535 0.0805664C10.0832 0.0805664 8.56631 1.54716 8.56631 3.35545C8.56631 3.61236 8.59598 3.86228 8.65402 4.10197C5.83853 3.96479 3.3424 2.66032 1.67204 0.679923C1.38053 1.1638 1.2135 1.72599 1.2135 2.3261C1.2135 3.46221 1.81147 4.4645 2.72005 5.05226C2.16541 5.0348 1.64276 4.88764 1.18615 4.64196V4.68312C1.18615 6.27068 2.35476 7.59385 3.90258 7.89503C3.61882 7.96985 3.31957 8.00976 3.01181 8.00976C2.79357 8.00976 2.581 7.98981 2.37462 7.95115C2.80543 9.25262 4.05659 10.1994 5.53864 10.2259C4.37931 11.1038 2.91868 11.6276 1.33113 11.6276C1.05768 11.6276 0.788618 11.6126 0.523682 11.582C2.02249 12.5113 3.80327 13.0535 5.71599 13.0535C11.946 13.0535 15.3531 8.06264 15.3531 3.7352C15.3531 3.59303 15.3498 3.45211 15.3433 3.31118C16.0053 2.84976 16.5798 2.27235 17.0338 1.61512" fill="#B6BAC7"/>
</svg>
